<svg width="74" height="73" viewBox="0 0 74 73" fill="none" xmlns="http://www.w3.org/2000/svg">
<g clip-path="url(#clip0_7_35)">
<path d="M11.1662 16.7054C8.87871 17.2546 7.46678 19.5552 8.01655 21.8452L10.5232 32.286C11.3517 35.7339 13.3745 38.7769 16.2329 40.8754C19.0914 42.9739 22.6006 43.9923 26.1383 43.75C25.2433 39.8791 25.5272 35.8289 26.9536 32.1208L20.3566 28.074C19.9516 27.8057 19.6665 27.3907 19.5614 26.9164C19.4564 26.442 19.5395 25.9455 19.7934 25.5312C20.0472 25.117 20.4519 24.8174 20.9223 24.6957C21.3926 24.574 21.8918 24.6396 22.3148 24.8786L28.6266 28.7445C30.8043 25.2195 34.0257 22.4602 37.8433 20.8498C36.1769 18.1779 33.7123 16.098 30.7984 14.9043C27.8845 13.7107 24.669 13.4639 21.607 14.1988L11.1662 16.7054Z" fill="#5DC192"/>
<path d="M34.9432 53.1286L30.6304 60.1597C30.4965 60.3696 30.4058 60.6041 30.3636 60.8494C30.3213 61.0948 30.3283 61.3461 30.3842 61.5887C30.4401 61.8313 30.5438 62.0604 30.6892 62.2625C30.8345 62.4646 31.0187 62.6358 31.2309 62.7659C31.4431 62.8961 31.6792 62.9828 31.9252 63.0207C32.1713 63.0587 32.4224 63.0474 32.664 62.9872C32.9056 62.9271 33.1329 62.8195 33.3324 62.6707C33.532 62.5218 33.6999 62.3347 33.8264 62.1202L38.141 55.0862C41.1241 56.4992 44.4459 57.0396 47.7231 56.645C51.0002 56.2505 54.0988 54.937 56.6612 52.8564C59.2236 50.7757 61.1452 48.0127 62.2042 44.8864C63.2631 41.76 63.4161 38.398 62.6456 35.1884L59.5828 22.4309C59.3119 21.3027 58.6039 20.3282 57.6146 19.7219C56.6253 19.1157 55.4356 18.9273 54.3073 19.1981L41.545 22.2621C38.3357 23.0331 35.41 24.696 33.1056 27.0589C30.8011 29.4218 29.212 32.3883 28.5217 35.6159C27.8314 38.8435 28.068 42.2005 29.2043 45.2993C30.3405 48.3981 32.3301 51.1123 34.9432 53.1286V53.1286ZM47.6842 39.5234L40.1194 51.8679C38.9695 51.3636 37.8937 50.705 36.9216 49.9103L44.4857 37.5634C44.7456 37.1392 45.1634 36.8357 45.6471 36.7196C46.1308 36.6035 46.6408 36.6842 47.0649 36.9441C47.4891 37.2041 47.7926 37.6218 47.9087 38.1055C48.0249 38.5892 47.9441 39.0992 47.6842 39.5234Z" fill="#5DC192"/>
</g>
<defs>
<clipPath id="clip0_7_35">
<rect width="60" height="60" fill="white" transform="translate(0.987793 14.0068) rotate(-13.5)"/>
</clipPath>
</defs>
</svg>
